<?xml version="1.0" encoding="UTF-8" standalone="no"?>
<svg
   viewBox="0 0 16 16"
   version="1.1"
   id="svg20"
   sodipodi:docname="Test.svg"
   inkscape:version="1.2 (dc2aedaf03, 2022-05-15)"
   xmlns:inkscape="http://www.inkscape.org/namespaces/inkscape"
   xmlns:sodipodi="http://sodipodi.sourceforge.net/DTD/sodipodi-0.dtd"
   xmlns="http://www.w3.org/2000/svg"
   xmlns:svg="http://www.w3.org/2000/svg"
   xmlns:rdf="http://www.w3.org/1999/02/22-rdf-syntax-ns#"
   xmlns:cc="http://creativecommons.org/ns#"
   xmlns:dc="http://purl.org/dc/elements/1.1/">
  <sodipodi:namedview
     id="namedview22"
     pagecolor="#ffffff"
     bordercolor="#000000"
     borderopacity="0.25"
     inkscape:showpageshadow="2"
     inkscape:pageopacity="0.0"
     inkscape:pagecheckerboard="0"
     inkscape:deskcolor="#d1d1d1"
     showgrid="false"
     inkscape:zoom="64.1875"
     inkscape:cx="7.9922103"
     inkscape:cy="7.9922103"
     inkscape:window-width="3440"
     inkscape:window-height="1334"
     inkscape:window-x="-11"
     inkscape:window-y="-11"
     inkscape:window-maximized="1"
     inkscape:current-layer="svg20" />
  <defs
     id="defs4">
    <style
       id="style2">.canvas{fill: none; opacity: 0;}.light-defaultgrey-10{fill: #212121; opacity: 0.1;}.light-defaultgrey{fill: #212121; opacity: 1;}.light-teal-10{fill: #006758; opacity: 0.1;}.light-teal{fill: #006758; opacity: 1;}</style>
  </defs>
  <title
     id="title6">IconLightTest</title>
  <g
     id="level-1">
    <path
       class="light-defaultgrey-10"
       d="M11.962,10.524H4.038L6.5,6.667V2h3V6.667Z"
       id="path11" />
    <path
       class="light-defaultgrey"
       d="M10,6.521V2h1V1H5V2H6V6.521L3.616,10.256l.422.768h7.924l.422-.768Zm-5.05,3.5L6.921,6.936,7,6.667V2H9V6.667l.079.269,1.971,3.088Z"
       id="path13" />
    <path
       class="light-teal-10"
       d="M12.675,14.5H3.325a1,1,0,0,1-.843-1.538L4,10.5h8l1.518,2.462A1,1,0,0,1,12.675,14.5Z"
       id="path15" />
    <path
       class="light-teal"
       d="M13.944,12.7l-1.518-2.462L12,10H4l-.426.237L2.061,12.692A1.5,1.5,0,0,0,3.325,15h9.35a1.5,1.5,0,0,0,1.269-2.3Zm-.83,1.041a.49.49,0,0,1-.439.26H3.325a.5.5,0,0,1-.417-.775L4.279,11h7.442L13.1,13.231A.488.488,0,0,1,13.114,13.74Z"
       id="path17" />
  </g>
  <g
     id="canvas"
     class="canvas">
    <path
       class="canvas"
       d="M16,16H0V0H16Z"
       id="path8" />
  </g>
  <path
     class="light-yellow"
     d="m 4.0000002,4.9999999 v 2 h -1 v -2 L 3.5000002,4.5 Z M 2.7920002,4.206 v 0.7059999 l -1.412,1.417 -0.708,-0.707 1.412,-1.4159999 z M 5.0000002,3 h 2 v 1 h -2 l -0.5,-0.5 z m -0.791,-0.207 V 2.087 l 1.411,-1.416 0.707,0.706 -1.412,1.417 z m 0,2.1209999 V 4.208 h 0.706 l 1.414,1.4119999 -0.707,0.707 z M 2.0000002,4 H 0 V 3 h 2.0000002 l 0.5,0.5 z m 0.793,-1.914 v 0.708 h -0.705 l -1.417,-1.414 0.707,-0.708 z M 3.0000002,2 V 0 h 1 v 2 l -0.5,0.5 z"
     id="path382"
     style="fill:#996f00" />
  <metadata
     id="metadata457">
    <rdf:RDF>
      <cc:Work
         rdf:about="">
        <dc:title>IconLightTest</dc:title>
      </cc:Work>
    </rdf:RDF>
  </metadata>
</svg>
